<?xml version="1.0" standalone="no"?>
<!DOCTYPE svg PUBLIC "-//W3C//DTD SVG 20010904//EN"
 "http://www.w3.org/TR/2001/REC-SVG-20010904/DTD/svg10.dtd">
<svg version="1.0" xmlns="http://www.w3.org/2000/svg"
 width="500.000000pt" height="500.000000pt" viewBox="0 0 500.000000 500.000000"
 preserveAspectRatio="xMidYMid meet">
<metadata>
Created by potrace 1.11, written by Peter Selinger 2001-2013
</metadata>
<g transform="translate(0.000000,500.000000) scale(0.100000,-0.100000)"
fill="#000000" stroke="none">
<path d="M1560 4221 c0 -1 28 -48 63 -102 75 -120 238 -380 326 -521 35 -57
79 -126 97 -154 19 -29 114 -180 213 -338 l179 -285 45 72 c97 158 281 464
294 488 10 21 13 99 11 375 l-3 349 -169 -218 c-93 -119 -172 -217 -176 -217
-4 0 -58 81 -121 180 -63 99 -141 224 -175 277 l-61 96 -262 1 c-143 1 -261
-1 -261 -3z"/>
<path d="M2859 4223 c-5 -34 1 -1386 6 -1391 3 -4 121 -7 261 -9 l254 -2 1 35
c0 19 1 336 2 704 l2 670 -262 0 c-145 0 -263 -3 -264 -7z"/>
<path d="M1559 4079 c-4 -75 -3 -1224 2 -1237 5 -15 30 -17 247 -18 l240 -2 0
251 0 250 -42 66 c-106 163 -174 271 -305 480 -78 124 -141 218 -142 210z"/>
<path d="M260 2760 c-4 -3 85 -151 198 -330 112 -179 292 -464 399 -635 264
-420 267 -425 274 -425 3 0 51 74 105 165 54 91 132 220 172 286 l72 121 -2
351 -3 351 -169 -217 c-92 -119 -171 -217 -175 -217 -3 0 -84 124 -180 275
-96 151 -179 275 -185 276 -53 4 -500 3 -506 -1z"/>
<path d="M1550 2065 l0 -700 247 0 248 0 0 698 c0 383 -2 697 -5 698 -3 0
-114 1 -248 2 l-242 2 0 -700z"/>
<path d="M2885 2760 c-11 -4 20 -60 118 -215 328 -519 723 -1147 733 -1166 10
-18 30 11 187 273 l175 293 0 349 c0 337 -1 348 -18 330 -10 -11 -86 -107
-170 -214 -83 -107 -155 -196 -159 -198 -4 -1 -84 117 -177 264 -93 147 -172
272 -176 277 -6 10 -485 17 -513 7z"/>
<path d="M4169 2745 c-1 -24 0 -1356 0 -1370 1 -7 88 -10 246 -10 l245 0 0
697 c0 384 -3 698 -7 699 -5 0 -115 1 -246 2 -231 2 -237 1 -238 -18z"/>
<path d="M250 2000 l0 -635 230 0 230 0 0 271 0 271 -166 264 c-190 302 -218
345 -262 414 l-32 50 0 -635z"/>
<path d="M2865 2000 c0 -413 3 -630 10 -631 5 -1 121 -2 258 -3 l247 -2 1 25
c4 127 0 422 -6 432 -48 82 -490 787 -499 796 -8 9 -11 -142 -11 -617z"/>
<path d="M1174 1171 c-48 -22 -97 -78 -113 -130 -12 -41 -14 -113 -5 -146 16
-57 121 -82 192 -46 44 22 92 77 92 105 0 28 -33 14 -62 -26 -45 -61 -131 -73
-164 -23 -45 68 11 212 91 234 47 13 86 0 105 -34 29 -52 72 -37 51 18 -22 57
-114 80 -187 48z"/>
<path d="M1875 1178 c-110 -28 -190 -213 -129 -295 32 -42 62 -54 127 -50 44
2 67 10 98 33 75 52 116 168 89 249 -20 60 -97 86 -185 63z m115 -56 c60 -49
10 -210 -75 -242 -42 -16 -103 -3 -121 25 -36 55 -8 165 54 209 44 31 108 35
142 8z"/>
<path d="M2348 1176 c-58 -21 -88 -60 -88 -115 0 -37 25 -55 94 -71 67 -15 86
-27 86 -54 0 -36 -34 -60 -90 -62 -57 -3 -79 10 -82 49 -2 21 -7 27 -25 27
-19 0 -23 -5 -23 -29 0 -43 9 -60 41 -76 57 -30 161 -12 203 33 23 26 33 97
16 117 -7 8 -38 22 -69 31 -31 8 -66 19 -78 24 -32 13 -30 55 2 76 44 29 125
16 125 -20 0 -22 17 -37 33 -30 38 14 4 103 -41 105 -9 0 -28 2 -42 4 -14 2
-42 -2 -62 -9z"/>
<path d="M3773 1178 c-95 -26 -170 -185 -133 -282 25 -67 136 -85 212 -35 33
21 88 97 74 100 -25 6 -36 0 -71 -38 -46 -50 -89 -62 -135 -38 -37 19 -47 65
-30 135 28 115 163 168 207 81 6 -14 21 -26 32 -28 31 -4 27 40 -7 78 -22 25
-37 31 -72 34 -25 1 -60 -2 -77 -7z"/>
<path d="M583 1168 c-10 -14 -77 -317 -71 -323 1 -2 12 -5 22 -7 16 -3 22 9
38 82 25 117 26 122 27 148 1 12 6 22 11 22 6 0 9 -3 8 -7 -2 -7 5 -59 19
-158 3 -22 5 -48 5 -57 0 -10 8 -22 18 -28 26 -14 38 0 111 135 34 63 64 114
65 112 2 -2 -8 -57 -22 -122 -19 -89 -22 -120 -13 -126 23 -14 37 2 45 49 4
26 8 49 9 52 7 28 22 96 31 140 3 14 9 40 14 58 9 36 3 42 -39 39 -24 -2 -35
-18 -133 -199 -23 -43 -43 -77 -44 -75 -1 1 -6 29 -9 61 -4 33 -9 67 -10 75
-2 9 -6 43 -10 76 -6 57 -8 61 -35 63 -15 1 -32 -4 -37 -10z"/>
<path d="M987 1173 c-8 -16 -55 -219 -63 -278 -3 -16 -7 -35 -9 -42 -2 -6 5
-13 16 -16 14 -4 23 1 29 16 8 18 70 306 70 322 0 8 -39 5 -43 -2z"/>
<path d="M1450 1176 c0 -1 -9 -44 -21 -96 -11 -52 -23 -106 -25 -120 -3 -14
-9 -44 -15 -68 -11 -50 -7 -62 20 -55 14 4 22 20 31 69 7 35 17 67 22 70 17
11 128 7 142 -5 10 -8 11 -23 3 -67 -5 -30 -8 -57 -6 -59 2 -1 15 -5 28 -7 22
-3 25 1 27 40 1 24 5 54 8 66 3 13 0 31 -7 40 -12 16 -9 22 15 46 21 21 28 38
28 67 0 46 -8 59 -40 71 -20 8 -210 15 -210 8z m188 -50 c19 -11 14 -61 -8
-81 -13 -12 -40 -18 -90 -21 -78 -4 -78 -4 -59 69 l10 42 67 0 c37 -1 73 -5
80 -9z"/>
<path d="M2601 1167 c-6 -6 -11 -18 -11 -27 0 -8 -13 -76 -30 -150 -16 -74
-30 -139 -30 -145 0 -8 158 -12 245 -6 6 1 11 10 12 21 2 19 -4 20 -98 20 -88
0 -99 2 -99 18 0 33 21 92 33 93 7 1 47 1 89 0 66 0 79 3 88 19 13 24 4 27
-98 25 l-83 0 7 40 c3 22 8 43 11 48 2 4 48 7 103 7 97 0 110 4 110 39 0 13
-236 11 -249 -2z"/>
<path d="M2913 1167 c-1 -6 -15 -77 -32 -157 -17 -80 -32 -150 -34 -157 -1 -6
1 -12 6 -12 30 -3 44 1 45 12 0 6 2 21 5 32 3 11 8 38 11 60 l7 40 67 -3 c98
-4 95 -2 87 -76 -6 -58 -5 -64 13 -68 11 -3 24 -3 28 1 13 9 16 141 4 156 -8
10 -7 16 4 22 21 11 46 63 46 94 0 50 -30 63 -149 66 -79 2 -108 -1 -108 -10z
m195 -41 c11 -12 5 -68 -10 -82 -10 -11 -42 -18 -93 -21 -72 -5 -77 -4 -72 13
3 11 9 35 13 54 3 19 11 38 16 41 11 7 138 3 146 -5z"/>
<path d="M3225 1133 c4 -27 8 -57 10 -68 1 -11 5 -33 8 -50 3 -16 9 -52 12
-80 7 -61 15 -88 27 -96 12 -7 48 0 48 10 0 3 41 76 90 161 49 85 90 158 90
163 0 4 -10 7 -22 7 -23 0 -42 -29 -143 -215 -35 -64 -40 -70 -42 -42 -2 27
-23 186 -28 212 -2 11 -4 26 -4 33 -1 6 -13 12 -27 12 -26 0 -26 -1 -19 -47z"/>
<path d="M3566 1163 c-4 -10 -21 -83 -37 -162 -17 -80 -33 -149 -35 -153 -3
-4 6 -8 20 -8 28 0 33 5 39 41 3 13 17 79 31 147 14 67 26 129 26 137 0 21
-36 19 -44 -2z"/>
<path d="M4020 1121 c-7 -31 -18 -81 -25 -111 -14 -59 -28 -136 -29 -159 -1
-12 20 -15 110 -14 121 0 144 4 144 28 0 12 -17 15 -101 15 l-101 0 6 38 c15
81 4 75 129 73 74 -2 77 -1 77 22 0 22 -2 23 -86 22 -47 0 -88 3 -90 7 -3 4 0
26 7 48 l12 40 98 0 c97 0 109 4 109 40 0 5 -56 8 -125 8 l-124 -1 -11 -56z"/>
</g>
</svg>
